<svg width="1919" height="108" viewBox="0 0 1919 108" fill="none" xmlns="http://www.w3.org/2000/svg">
<rect width="1920" height="108" fill="black"/>
<path d="M878.559 43.4152H888.365C890.709 43.4152 892.774 43.8674 894.563 44.7719C896.372 45.6559 897.77 46.9099 898.757 48.5339C899.764 50.1579 900.267 52.0491 900.267 54.2076C900.267 56.3661 899.764 58.2573 898.757 59.8813C897.77 61.5053 896.372 62.7696 894.563 63.6741C892.774 64.558 890.709 65 888.365 65H878.559V43.4152ZM888.118 60.8989C890.277 60.8989 891.993 60.3027 893.268 59.1104C894.563 57.8976 895.21 56.2633 895.21 54.2076C895.21 52.1519 894.563 50.5279 893.268 49.3356C891.993 48.1227 890.277 47.5163 888.118 47.5163H883.555V60.8989H888.118ZM910.202 65.2467C908.454 65.2467 906.882 64.8869 905.484 64.1674C904.107 63.4274 903.027 62.4098 902.246 61.1147C901.465 59.8196 901.075 58.3498 901.075 56.7053C901.075 55.0607 901.465 53.5909 902.246 52.2958C903.027 51.0007 904.107 49.9934 905.484 49.2739C906.882 48.5339 908.454 48.1638 910.202 48.1638C911.949 48.1638 913.511 48.5339 914.889 49.2739C916.266 49.9934 917.345 51.0007 918.127 52.2958C918.908 53.5909 919.298 55.0607 919.298 56.7053C919.298 58.3498 918.908 59.8196 918.127 61.1147C917.345 62.4098 916.266 63.4274 914.889 64.1674C913.511 64.8869 911.949 65.2467 910.202 65.2467ZM910.202 61.2997C911.435 61.2997 912.443 60.8886 913.224 60.0663C914.025 59.2235 914.426 58.1031 914.426 56.7053C914.426 55.3074 914.025 54.1973 913.224 53.375C912.443 52.5322 911.435 52.1108 910.202 52.1108C908.968 52.1108 907.951 52.5322 907.149 53.375C906.347 54.1973 905.947 55.3074 905.947 56.7053C905.947 58.1031 906.347 59.2235 907.149 60.0663C907.951 60.8886 908.968 61.2997 910.202 61.2997ZM931.209 48.1638C933.265 48.1638 934.92 48.7806 936.174 50.014C937.448 51.2474 938.085 53.077 938.085 55.5027V65H933.275V56.2427C933.275 54.9271 932.987 53.9506 932.412 53.3134C931.836 52.6555 931.004 52.3266 929.914 52.3266C928.701 52.3266 927.735 52.7069 927.016 53.4675C926.296 54.2076 925.936 55.3177 925.936 56.7978V65H921.126V48.4105H925.72V50.3532C926.358 49.6542 927.149 49.1197 928.095 48.7497C929.04 48.3591 930.079 48.1638 931.209 48.1638ZM941.552 41.8426H946.732L950.895 46.2829H947.133L941.552 41.8426ZM968.86 64.1983C968.387 64.5477 967.801 64.815 967.102 65C966.424 65.1645 965.704 65.2467 964.944 65.2467C962.97 65.2467 961.439 64.743 960.349 63.7357C959.28 62.7285 958.746 61.2484 958.746 59.2954V52.4808H956.186V48.7806H958.746V44.7411H963.556V48.7806H967.688V52.4808H963.556V59.2338C963.556 59.9327 963.731 60.4775 964.08 60.8681C964.45 61.2381 964.964 61.4231 965.622 61.4231C966.383 61.4231 967.03 61.2175 967.565 60.8064L968.86 64.1983ZM1023.64 48.4105H1028.45V65H1023.64V48.4105ZM1026.05 46.0979C1025.16 46.0979 1024.44 45.8409 1023.89 45.327C1023.33 44.8131 1023.06 44.1758 1023.06 43.4152C1023.06 42.6546 1023.33 42.0173 1023.89 41.5034C1024.44 40.9895 1025.16 40.7325 1026.05 40.7325C1026.93 40.7325 1027.65 40.9792 1028.21 41.4726C1028.76 41.9659 1029.04 42.5826 1029.04 43.3227C1029.04 44.1244 1028.76 44.7925 1028.21 45.327C1027.65 45.8409 1026.93 46.0979 1026.05 46.0979ZM1042.23 64.1983C1041.76 64.5477 1041.17 64.815 1040.47 65C1039.79 65.1645 1039.07 65.2467 1038.31 65.2467C1036.34 65.2467 1034.81 64.743 1033.72 63.7357C1032.65 62.7285 1032.12 61.2484 1032.12 59.2954V52.4808H1029.56V48.7806H1032.12V44.7411H1036.93V48.7806H1041.06V52.4808H1036.93V59.2338C1036.93 59.9327 1037.1 60.4775 1037.45 60.8681C1037.82 61.2381 1038.33 61.4231 1038.99 61.4231C1039.75 61.4231 1040.4 61.2175 1040.93 60.8064L1042.23 64.1983Z" fill="white"/>
<path d="M994.415 42.1201V65H989.821V63.0882C988.629 64.5272 986.902 65.2467 984.64 65.2467C983.078 65.2467 981.66 64.8972 980.385 64.1983C979.131 63.4993 978.144 62.5023 977.425 61.2072C976.706 59.9122 976.346 58.4115 976.346 56.7053C976.346 54.999 976.706 53.4984 977.425 52.2033C978.144 50.9082 979.131 49.9112 980.385 49.2123C981.66 48.5133 983.078 48.1638 984.64 48.1638C986.758 48.1638 988.413 48.8319 989.605 50.1682V42.1201H994.415ZM985.473 61.2997C986.686 61.2997 987.693 60.8886 988.495 60.0663C989.297 59.2235 989.698 58.1031 989.698 56.7053C989.698 55.3074 989.297 54.1973 988.495 53.375C987.693 52.5322 986.686 52.1108 985.473 52.1108C984.24 52.1108 983.222 52.5322 982.42 53.375C981.619 54.1973 981.218 55.3074 981.218 56.7053C981.218 58.1031 981.619 59.2235 982.42 60.0663C983.222 60.8886 984.24 61.2997 985.473 61.2997ZM1005.37 65.2467C1003.63 65.2467 1002.05 64.8869 1000.66 64.1674C999.279 63.4274 998.199 62.4098 997.418 61.1147C996.637 59.8196 996.246 58.3498 996.246 56.7053C996.246 55.0607 996.637 53.5909 997.418 52.2958C998.199 51.0007 999.279 49.9934 1000.66 49.2739C1002.05 48.5339 1003.63 48.1638 1005.37 48.1638C1007.12 48.1638 1008.68 48.5339 1010.06 49.2739C1011.44 49.9934 1012.52 51.0007 1013.3 52.2958C1014.08 53.5909 1014.47 55.0607 1014.47 56.7053C1014.47 58.3498 1014.08 59.8196 1013.3 61.1147C1012.52 62.4098 1011.44 63.4274 1010.06 64.1674C1008.68 64.8869 1007.12 65.2467 1005.37 65.2467ZM1005.37 61.2997C1006.61 61.2997 1007.61 60.8886 1008.4 60.0663C1009.2 59.2235 1009.6 58.1031 1009.6 56.7053C1009.6 55.3074 1009.2 54.1973 1008.4 53.375C1007.61 52.5322 1006.61 52.1108 1005.37 52.1108C1004.14 52.1108 1003.12 52.5322 1002.32 53.375C1001.52 54.1973 1001.12 55.3074 1001.12 56.7053C1001.12 58.1031 1001.52 59.2235 1002.32 60.0663C1003.12 60.8886 1004.14 61.2997 1005.37 61.2997Z" fill="#EE58B6"/>
</svg>
